<mxfile host="app.diagrams.net" modified="2023-11-02T16:31:46.181Z" agent="Mozilla/5.0 (Macintosh; Intel Mac OS X 10_15_7) AppleWebKit/537.36 (KHTML, like Gecko) Chrome/113.0.0.0 Safari/537.36" version="22.0.0" etag="8MYbM8ZNsC8yGo_J7vN8" type="github">
  <diagram name="Page-1" id="6ot5tKGp_10JXIGLp8TC">
    <mxGraphModel>
      <root>
        <mxCell id="0" />
        <mxCell id="1" parent="0" />
      </root>
    </mxGraphModel>
  </diagram>
</mxfile>
